<?xml version="1.0" encoding="UTF-8" standalone="no"?>
<!-- Created with Inkscape (http://www.inkscape.org/) -->
<svg xmlns:rdf="http://www.w3.org/1999/02/22-rdf-syntax-ns#" xmlns="http://www.w3.org/2000/svg" xml:space="preserve" height="500" viewBox="0 0 700 500" width="700" version="1.1" xmlns:cc="http://creativecommons.org/ns#" xmlns:dc="http://purl.org/dc/elements/1.1/"><metadata><rdf:RDF><cc:Work rdf:about=""><dc:format>image/svg+xml</dc:format><dc:type rdf:resource="http://purl.org/dc/dcmitype/StillImage"/><dc:title/></cc:Work></rdf:RDF></metadata><defs><marker id="marker8855" refY="0" refX="0" overflow="visible" orient="auto"><path d="m-2.5-1c0 2.76-2.24 5-5 5s-5-2.24-5-5 2.24-5 5-5 5 2.24 5 5z" fill-rule="evenodd" transform="matrix(.2 0 0 .2 1.48 .2)" stroke="#999" stroke-width="1pt" fill="#999"/></marker><marker id="marker8713" refY="0" refX="0" overflow="visible" orient="auto"><path d="m-2.5-1c0 2.76-2.24 5-5 5s-5-2.24-5-5 2.24-5 5-5 5 2.24 5 5z" fill-rule="evenodd" transform="matrix(.2 0 0 .2 1.48 .2)" stroke="#999" stroke-width="1pt" fill="#999"/></marker><marker id="marker8577" refY="0" refX="0" overflow="visible" orient="auto"><path d="m-2.5-1c0 2.76-2.24 5-5 5s-5-2.24-5-5 2.24-5 5-5 5 2.24 5 5z" fill-rule="evenodd" transform="matrix(.2 0 0 .2 1.48 .2)" stroke="#999" stroke-width="1pt" fill="#999"/></marker><marker id="marker8447" refY="0" refX="0" overflow="visible" orient="auto"><path d="m-2.5-1c0 2.76-2.24 5-5 5s-5-2.24-5-5 2.24-5 5-5 5 2.24 5 5z" fill-rule="evenodd" transform="matrix(.2 0 0 .2 1.48 .2)" stroke="#999" stroke-width="1pt" fill="#999"/></marker><marker id="marker8323" refY="0" refX="0" overflow="visible" orient="auto"><path d="m-2.5-1c0 2.76-2.24 5-5 5s-5-2.24-5-5 2.24-5 5-5 5 2.24 5 5z" fill-rule="evenodd" transform="matrix(.2 0 0 .2 1.48 .2)" stroke="#999" stroke-width="1pt" fill="#999"/></marker><marker id="marker8199" refY="0" refX="0" orient="auto" overflow="visible"><path d="m-2.5-1c0 2.76-2.24 5-5 5s-5-2.24-5-5 2.24-5 5-5 5 2.24 5 5z" fill-rule="evenodd" transform="matrix(.2 0 0 .2 1.48 .2)" stroke="#999" stroke-width="1pt" fill="#999"/></marker><marker id="marker8067" refY="0" refX="0" overflow="visible" orient="auto"><path d="m-2.5-1c0 2.76-2.24 5-5 5s-5-2.24-5-5 2.24-5 5-5 5 2.24 5 5z" fill-rule="evenodd" transform="matrix(.2 0 0 .2 1.48 .2)" stroke="#00bfc4" stroke-width="1pt" fill="#00bfc4"/></marker><marker id="marker7961" refY="0" refX="0" overflow="visible" orient="auto"><path d="m-2.5-1c0 2.76-2.24 5-5 5s-5-2.24-5-5 2.24-5 5-5 5 2.24 5 5z" fill-rule="evenodd" transform="matrix(.2 0 0 .2 1.48 .2)" stroke="#00bfc4" stroke-width="1pt" fill="#00bfc4"/></marker><marker id="marker7861" refY="0" refX="0" overflow="visible" orient="auto"><path d="m-2.5-1c0 2.76-2.24 5-5 5s-5-2.24-5-5 2.24-5 5-5 5 2.24 5 5z" fill-rule="evenodd" transform="matrix(.2 0 0 .2 1.48 .2)" stroke="#00bfc4" stroke-width="1pt" fill="#00bfc4"/></marker><marker id="marker7767" refY="0" refX="0" overflow="visible" orient="auto"><path d="m-2.5-1c0 2.76-2.24 5-5 5s-5-2.24-5-5 2.24-5 5-5 5 2.24 5 5z" fill-rule="evenodd" transform="matrix(.2 0 0 .2 1.48 .2)" stroke="#00bfc4" stroke-width="1pt" fill="#00bfc4"/></marker><marker id="marker7679" refY="0" refX="0" overflow="visible" orient="auto"><path d="m-2.5-1c0 2.76-2.24 5-5 5s-5-2.24-5-5 2.24-5 5-5 5 2.24 5 5z" fill-rule="evenodd" transform="matrix(.2 0 0 .2 1.48 .2)" stroke="#00bfc4" stroke-width="1pt" fill="#00bfc4"/></marker><marker id="marker7591" refY="0" refX="0" orient="auto" overflow="visible"><path d="m-2.5-1c0 2.76-2.24 5-5 5s-5-2.24-5-5 2.24-5 5-5 5 2.24 5 5z" fill-rule="evenodd" transform="matrix(.2 0 0 .2 1.48 .2)" stroke="#00bfc4" stroke-width="1pt" fill="#00bfc4"/></marker><marker id="marker7509" refY="0" refX="0" overflow="visible" orient="auto"><path d="m-2.5-1c0 2.76-2.24 5-5 5s-5-2.24-5-5 2.24-5 5-5 5 2.24 5 5z" fill-rule="evenodd" transform="matrix(.2 0 0 .2 1.48 .2)" stroke="#f8766d" stroke-width="1pt" fill="#f8766d"/></marker><marker id="marker7439" refY="0" refX="0" overflow="visible" orient="auto"><path d="m-2.5-1c0 2.76-2.24 5-5 5s-5-2.24-5-5 2.24-5 5-5 5 2.24 5 5z" fill-rule="evenodd" transform="matrix(.2 0 0 .2 1.48 .2)" stroke="#f8766d" stroke-width="1pt" fill="#f8766d"/></marker><marker id="marker7375" refY="0" refX="0" overflow="visible" orient="auto"><path d="m-2.5-1c0 2.76-2.24 5-5 5s-5-2.24-5-5 2.24-5 5-5 5 2.24 5 5z" fill-rule="evenodd" transform="matrix(.2 0 0 .2 1.48 .2)" stroke="#f8766d" stroke-width="1pt" fill="#f8766d"/></marker><marker id="marker7317" refY="0" refX="0" overflow="visible" orient="auto"><path d="m-2.5-1c0 2.76-2.24 5-5 5s-5-2.24-5-5 2.24-5 5-5 5 2.24 5 5z" fill-rule="evenodd" transform="matrix(.2 0 0 .2 1.48 .2)" stroke="#f8766d" stroke-width="1pt" fill="#f8766d"/></marker><marker id="marker7307" refY="0" refX="0" overflow="visible" orient="auto"><path d="m-2.5-1c0 2.76-2.24 5-5 5s-5-2.24-5-5 2.24-5 5-5 5 2.24 5 5z" fill-rule="evenodd" transform="matrix(.2 0 0 .2 1.48 .2)" stroke="#f8766d" stroke-width="1pt" fill="#f8766d"/></marker><marker id="DotS" refY="0" refX="0" orient="auto" overflow="visible"><path d="m-2.5-1c0 2.76-2.24 5-5 5s-5-2.24-5-5 2.24-5 5-5 5 2.24 5 5z" fill-rule="evenodd" transform="matrix(.2 0 0 .2 1.48 .2)" stroke="#f8766d" stroke-width="1pt" fill="#f8766d"/></marker><clipPath clipPathUnits="userSpaceOnUse"><path d="m39.54 337.56h79.29v16.96h-79.29z"/></clipPath><clipPath clipPathUnits="userSpaceOnUse"><path d="m39.54 337.56h79.29v16.96h-79.29z"/></clipPath><clipPath clipPathUnits="userSpaceOnUse"><path d="m39.54 337.56h79.29v16.96h-79.29z"/></clipPath><clipPath clipPathUnits="userSpaceOnUse"><path d="m124.31 337.56h79.29v16.96h-79.29z"/></clipPath><clipPath clipPathUnits="userSpaceOnUse"><path d="m124.31 337.56h79.29v16.96h-79.29z"/></clipPath><clipPath clipPathUnits="userSpaceOnUse"><path d="m124.31 337.56h79.29v16.96h-79.29z"/></clipPath><clipPath clipPathUnits="userSpaceOnUse"><path d="m209.08 337.56h79.29v16.96h-79.29z"/></clipPath><clipPath clipPathUnits="userSpaceOnUse"><path d="m209.08 337.56h79.29v16.96h-79.29z"/></clipPath><clipPath clipPathUnits="userSpaceOnUse"><path d="m209.08 337.56h79.29v16.96h-79.29z"/></clipPath><clipPath clipPathUnits="userSpaceOnUse"><path d="m293.85 337.56h79.29v16.96h-79.29z"/></clipPath><clipPath clipPathUnits="userSpaceOnUse"><path d="m293.85 337.56h79.29v16.96h-79.29z"/></clipPath><clipPath clipPathUnits="userSpaceOnUse"><path d="m293.85 337.56h79.29v16.96h-79.29z"/></clipPath><clipPath clipPathUnits="userSpaceOnUse"><path d="m378.61 337.56h79.29v16.96h-79.29z"/></clipPath><clipPath clipPathUnits="userSpaceOnUse"><path d="m378.61 337.56h79.29v16.96h-79.29z"/></clipPath><clipPath clipPathUnits="userSpaceOnUse"><path d="m378.61 337.56h79.29v16.96h-79.29z"/></clipPath></defs><g transform="matrix(1.3333 0 0 -1.3333 0 500)"><g transform="translate(-9.7701 4.5)"><path d="m406.58 32.79h79.29v304.77h-79.29z" fill="#ebebeb"/><g stroke-linejoin="round" stroke="#808080" stroke-miterlimit="10" stroke-dasharray="0.75000002, 2.25000006" stroke-width=".75" fill="none"><path d="m406.58 90.06h79.29"/><path d="m406.58 180.56h79.29"/><path d="m406.58 271.06h79.29"/><path d="m406.58 44.81h79.29"/><path d="m406.58 135.31h79.29"/><path d="m406.58 225.81h79.29"/><path d="m406.58 316.31h79.29"/></g><g stroke-linejoin="round" stroke-miterlimit="2.5" stroke-width="1.5" fill="none"><path marker-end="url(#marker7375)" d="m410.19 225.81 72.08-145.67" stroke="#f8766d"/><path marker-end="url(#marker7861)" d="m410.19 225.81 72.08-179.17" stroke="#00bfc4"/><path marker-end="url(#marker8577)" d="m410.19 225.81 72.08-173.05" stroke="#999" stroke-dasharray="3.00000008, 1.50000004"/></g><g font-size="13px" font-family="&apos;Liberation Sans&apos;" fill="#333333"><text transform="scale(1,-1)" y="-85.768188" x="480.26816"><tspan y="-85.768188" x="480.26816">−32.2%</tspan></text>
<text transform="scale(1,-1)" y="-34.012856" x="480.26816"><tspan y="-34.012856" x="480.26816">−39.6%</tspan></text>
<text transform="scale(1,-1)" y="-58.403767" x="480.26816"><tspan y="-58.403767" x="480.26816">−38.2%</tspan></text>
<text transform="scale(1,-1)" y="-18.809999" x="419.67044"><tspan y="-18.809999" x="419.67044">Industrial</tspan></text>
</g></g><g transform="translate(4.5)"><g transform="translate(203.68 453.54)"><path stroke-linejoin="round" marker-end="url(#marker7439)" d="m63.357-93.727h13.82" stroke="#f8766d" stroke-miterlimit="2.5" stroke-width="1.5" fill="none"/><text font-size="13px" transform="scale(1,-1)" y="96.957146" x="81.066864" font-family="&apos;Liberation Sans&apos;" fill="#333333"><tspan y="96.957146" x="81.066864">Non−metropolitan</tspan></text>
</g><g transform="translate(219.09 453.03)"><g transform="translate(-114.35 17.788)"><path stroke-linejoin="round" marker-end="url(#marker7961)" d="m63.357-111.01h13.82" stroke="#00bfc4" stroke-miterlimit="2.5" stroke-width="1.5" fill="none"/><text transform="scale(1,-1)" font-size="13px" y="114.23714" x="81.066864" font-family="&apos;Liberation Sans&apos;" fill="#333333"><tspan y="114.23714" x="81.066864">Metropolitan</tspan></text>
</g></g><g transform="translate(201.09 450.83)"><g transform="translate(132.99 37.271)"><path stroke-linejoin="round" marker-end="url(#marker8713)" d="m63.357-128.29h13.82" stroke="#999" stroke-miterlimit="2.5" stroke-dasharray="3.00000008, 1.50000004" stroke-width="1.5" fill="none"/><text transform="scale(1,-1)" font-size="13px" y="131.51715" x="81.066864" font-family="&apos;Liberation Sans&apos;" fill="#333333"><tspan y="131.51715" x="81.066864">U.S. Total</tspan></text>
</g></g></g><g transform="translate(-1.3437 4.5)"><path d="m309.96 32.79h79.29v304.77h-79.29z" fill="#ebebeb"/><g stroke-linejoin="round" stroke="#808080" stroke-miterlimit="10" stroke-dasharray="0.75000002, 2.25000006" stroke-width=".75" fill="none"><path d="m309.96 90.06h79.28"/><path d="m309.96 180.56h79.28"/><path d="m309.96 271.06h79.28"/><path d="m309.96 44.81h79.28"/><path d="m309.96 135.31h79.28"/><path d="m309.96 225.81h79.28"/><path d="m309.96 316.31h79.28"/></g><g stroke-linejoin="round" stroke-miterlimit="2.5" stroke-width="1.5" fill="none"><path marker-end="url(#marker7317)" d="m313.56 225.81 72.08 97.9" stroke="#f8766d"/><path marker-end="url(#marker7767)" d="m313.56 225.81 72.08 59.17" stroke="#00bfc4"/><path marker-end="url(#marker8447)" d="m313.56 225.81 72.08 65.36" stroke="#999" stroke-dasharray="3.00000008, 1.50000004"/></g><g font-size="13px" font-family="&apos;Liberation Sans&apos;" fill="#333333"><text transform="scale(1,-1)" y="-321.59326" x="337.11929"><tspan y="-321.59326" x="337.11929">+21.6%</tspan></text>
<text transform="scale(1,-1)" y="-255.54001" x="361.11929"><tspan y="-255.54001" x="361.11929">+13.1%</tspan></text>
<text transform="scale(1,-1)" y="-296.22" x="370.05176"><tspan y="-296.22" x="370.05176">+14.4%</tspan></text>
</g><text transform="scale(1,-1)" font-size="13px" y="-18.810001" x="310.75909" font-family="&apos;Liberation Sans&apos;" fill="#333333"><tspan y="-18.810001" x="310.75909">Public supply</tspan></text>
</g><g transform="translate(.36365 4.5)"><path d="m220.06 32.79h79.29v304.77h-79.29z" fill="#ebebeb"/><g stroke-linejoin="round" stroke="#808080" stroke-miterlimit="10" stroke-dasharray="0.75000002, 2.25000006" stroke-width=".75" fill="none"><path d="m220.06 90.06h79.29"/><path d="m220.06 180.56h79.29"/><path d="m220.06 271.06h79.29"/><path d="m220.06 44.81h79.29"/><path d="m220.06 135.31h79.29"/><path d="m220.06 225.81h79.29"/><path d="m220.06 316.31h79.29"/></g><g stroke-linejoin="round" stroke-miterlimit="2.5" stroke-width="1.5" fill="none"><path marker-end="url(#marker7307)" d="m223.66 225.81 72.08-54.84" stroke="#f8766d"/><path marker-end="url(#marker7679)" d="m223.66 225.81 72.08-92.75" stroke="#00bfc4"/><path marker-end="url(#marker8323)" d="m223.66 225.81 72.08-71.13" stroke="#999" stroke-dasharray="3.00000008, 1.50000004"/></g><g font-size="13px" font-family="&apos;Liberation Sans&apos;" fill="#333333"><text transform="scale(1,-1)" y="-201.48843" x="255.34976"><tspan y="-201.48843" x="255.34976">−12.1%</tspan></text>
<text transform="scale(1,-1)" y="-120.13599" x="255.34976"><tspan y="-120.13599" x="255.34976">−20.5%</tspan></text>
<text transform="scale(1,-1)" y="-143.54247" x="287.72302"><tspan y="-143.54247" x="287.72302">−15.7%</tspan></text>
</g><text transform="scale(1,-1)" font-size="13px" y="-18.809999" x="234.21771" font-family="&apos;Liberation Sans&apos;" fill="#333333"><tspan y="-18.809999" x="234.21771">Irrigation</tspan></text>
</g><g transform="translate(-1.379 4.5)"><path d="m133.61 32.79h79.29v304.77h-79.29z" fill="#ebebeb"/><g stroke-linejoin="round" stroke="#808080" stroke-miterlimit="10" stroke-dasharray="0.75000002, 2.25000006" stroke-width=".75" fill="none"><path d="m133.61 90.06h79.29"/><path d="m133.61 180.56h79.29"/><path d="m133.61 271.06h79.29"/><path d="m133.61 44.81h79.29"/><path d="m133.61 135.31h79.29"/><path d="m133.61 225.81h79.29"/><path d="m133.61 316.31h79.29"/></g><g stroke-linejoin="round" transform="translate(4.5)" stroke-miterlimit="2.5" stroke-width="1.5" fill="none"><path marker-end="url(#DotS)" d="m132.71 225.81 72.08-27.44" stroke="#f8766d"/><path marker-end="url(#marker7591)" d="m132.71 225.81 72.08-74.64" stroke="#00bfc4"/><path marker-end="url(#marker8199)" d="m132.71 225.81 72.08-64.15" stroke="#999" stroke-dasharray="3.00000008, 1.50000004"/></g><g font-size="13px" transform="translate(4.5)" font-family="&apos;Liberation Sans&apos;" fill="#333333"><text transform="scale(1,-1)" y="-210.92" x="171.63611"><tspan y="-210.92" x="171.63611">−6.1%</tspan></text>
<text transform="scale(1,-1)" y="-136.72" x="164.39978"><tspan y="-136.72" x="164.39978">−16.5%</tspan></text>
<text transform="scale(1,-1)" y="-177.19237" x="185.99173"><tspan y="-177.19237" x="185.99173">−14.2%</tspan></text>
</g></g><text style="text-anchor:middle;text-align:center" font-size="13px" transform="scale(1,-1)" y="-23.309999" x="171.61073" font-family="&apos;Liberation Sans&apos;" fill="#333333"><tspan y="-23.309999" x="173.41347">Thermoelectric </tspan><tspan y="-7.0599995" x="171.61073">power</tspan></text>
<g transform="translate(7.5)"><g stroke-linejoin="round" transform="translate(3.75e-8 4.5)" stroke="#333" stroke-miterlimit="10" stroke-width="1.07" fill="none"><path d="m36.8 44.81h2.74"/><path d="m36.8 135.31h2.74"/><path d="m36.8 225.81h2.74"/><path d="m36.8 316.31h2.74"/></g><g font-size="13px" transform="translate(9)" font-family="&apos;Liberation Sans&apos;" fill="#666666"><text transform="scale(1,-1)" y="-46.080002" x="-5.4000001"><tspan y="-46.080002" x="-5.4000001">-40%</tspan></text>
<text transform="scale(1,-1)" y="-136.58" x="-5.4000001"><tspan y="-136.58" x="-5.4000001">-20%</tspan></text>
<text transform="scale(1,-1)" y="-227.08" x="6.1781249"><tspan y="-227.08" x="6.1781249">0%</tspan></text>
<text transform="scale(1,-1)" y="-317.57999" x="-8.6499996"><tspan y="-317.57999" x="-8.6499996">+20%</tspan></text>
</g><g transform="translate(4.5,4.5)"><path d="m32.04 32.79h79.29v304.77h-79.29z" fill="#ebebeb"/><g stroke-linejoin="round" stroke="#808080" stroke-miterlimit="10" stroke-dasharray="0.75000002, 2.25000006" stroke-width=".75" fill="none"><path d="m32.04 90.06h79.29"/><path d="m32.04 180.56h79.29"/><path d="m32.04 271.06h79.29"/><path d="m32.04 44.81h79.29"/><path d="m32.04 135.31h79.29"/><path d="m32.04 225.81h79.29"/><path d="m32.04 316.31h79.29"/></g><g stroke-linejoin="round" stroke-miterlimit="2.5" stroke-width="1.5" fill="none"><path marker-end="url(#marker7509)" d="m35.64 225.81 72.08-16.93" stroke="#f8766d"/><path marker-end="url(#marker8067)" d="m35.64 225.81 72.08-66.45" stroke="#00bfc4"/><path marker-end="url(#marker8855)" d="m35.64 225.81 72.08-49.48" stroke="#999" stroke-dasharray="3.00000008, 1.50000004"/></g><g font-size="13px" font-family="&apos;Liberation Sans&apos;" fill="#333333"><text transform="scale(1,-1)" y="-218.42999" x="73.980003"><tspan y="-218.42999" x="73.980003">−3.7%</tspan></text>
<text transform="scale(1,-1)" y="-146.09236" x="66.743675"><tspan y="-146.09236" x="66.743675">−14.7%</tspan></text>
<text transform="scale(1,-1)" y="-191.86237" x="82.143524"><tspan y="-191.86237" x="82.143524">−10.9%</tspan></text>
</g><text font-size="13px" transform="scale(1,-1)" y="-18.810003" x="58.240662" font-family="&apos;Liberation Sans&apos;" fill="#333333"><tspan y="-18.810003" x="58.240662">Total</tspan></text>
</g><path d="m36.75 341.63v6.3672h78.75v-7.1328" stroke="#4d4d4d" stroke-width=".75" fill="none"/><text style="font-variant-ligatures:normal;letter-spacing:0px;font-variant-numeric:normal;word-spacing:0px;font-variant-caps:normal;font-feature-settings:normal" xml:space="preserve" transform="scale(1,-1)" line-height="18.75px" font-size="13px" y="-356.92285" x="39.423527" font-family="&apos;liberation sans&apos;" fill="#666666"><tspan y="-356.92285" x="39.423527" stroke-width=".75" fill="#666666">1985 to 2010</tspan></text>
<text style="font-variant-ligatures:normal;letter-spacing:0px;font-variant-numeric:normal;word-spacing:0px;font-variant-caps:normal;font-feature-settings:normal" xml:space="preserve" transform="matrix(0,1,1,0,0,0)" line-height="18.75px" font-size="13px" y="48.889912" x="85.929817" font-family="&apos;liberation sans&apos;" fill="#666666"><tspan y="48.889912" x="85.929817" stroke-width=".75" fill="#666666">Change in withdrawals     since 1985</tspan></text>
</g></g></svg>
