<?xml version="1.0" encoding="UTF-8" standalone="no"?>
<!-- Created with Inkscape (http://www.inkscape.org/) -->
<svg xmlns:rdf="http://www.w3.org/1999/02/22-rdf-syntax-ns#" xmlns="http://www.w3.org/2000/svg" xml:space="preserve" height="500" viewBox="0 0 700 500" width="700" version="1.1" xmlns:cc="http://creativecommons.org/ns#" xmlns:dc="http://purl.org/dc/elements/1.1/"><metadata><rdf:RDF><cc:Work rdf:about=""><dc:format>image/svg+xml</dc:format><dc:type rdf:resource="http://purl.org/dc/dcmitype/StillImage"/><dc:title/></cc:Work></rdf:RDF></metadata><defs><marker id="marker6419" refY="0" refX="0" overflow="visible" orient="auto"><path d="m0 0 5-5-17.5 5 17.5 5z" fill-rule="evenodd" transform="matrix(-.4 0 0 -.4 -4 0)" stroke="#4d4d4d" stroke-width="1pt" fill="#4d4d4d"/></marker><marker id="Arrow1Mend" refY="0" refX="0" orient="auto" overflow="visible"><path d="m0 0 5-5-17.5 5 17.5 5z" fill-rule="evenodd" transform="matrix(-.4 0 0 -.4 -4 0)" stroke="#4d4d4d" stroke-width="1pt" fill="#4d4d4d"/></marker></defs><g transform="matrix(1.3333 0 0 -1.3333 0 500)"><g transform="translate(0,-1.5)"><g transform="translate(0,3)" stroke="#4d4d4d" stroke-width=".75" fill="none"><path d="m141 34.229v8.0427"/><path d="m262.88 34.229v8.0427"/><path d="m384.75 34.229v8.0427"/><path d="m19.125 34.229v8.0427"/><path d="m505.88 34.229v8.0427"/></g><g transform="translate(7.5 16.5)"><path d="m391.01 24.75h57.525v249.04h-57.525z" fill="#00bfc4"/><path d="m391.01 273.8h57.525v50.953h-57.525z" fill="#f8766d"/><g font-size="15px"><text transform="matrix(0,1,1,0,0,0)" y="406.44751" x="28.618191" font-family="Helvetica" fill="#333333"><tspan y="406.44751" x="28.618191">Public supply</tspan></text>
<text transform="scale(1,-1)" y="-257.3172" x="404.69812" font-family="&apos;Liberation Sans&apos;" fill="#ffffff"><tspan y="-257.3172" x="404.69812">83%</tspan></text>
<text transform="scale(1,-1)" y="-308.34229" x="404.45276" font-family="&apos;Liberation Sans&apos;" fill="#ffffff"><tspan y="-308.34229" x="404.45276">17%</tspan></text>
</g></g><g transform="translate(6 16.5)"><path d="m450.04 24.75h21.938v239.81h-21.938z" fill="#00bfc4"/><path d="m450.04 264.56h21.938v60.19h-21.938z" fill="#f8766d"/><g font-size="15px"><text transform="matrix(0,1,1,0,0,0)" y="465.4725" x="28.483191" font-family="Helvetica" fill="#333333"><tspan y="465.4725" x="28.483191">Industrial</tspan></text>
<text transform="matrix(0,1,1,0,0,0)" y="466.16983" x="216.54817" font-family="&apos;Liberation Sans&apos;" fill="#ffffff"><tspan y="466.16983" x="216.54817">79.9%</tspan></text>
<text transform="matrix(0,1,1,0,0,0)" y="466.16983" x="276.73828" font-family="&apos;Liberation Sans&apos;" fill="#ffffff"><tspan y="466.16983" x="276.73828">20.1%</tspan></text>
</g></g><g transform="translate(4.5 16.5)"><path d="m473.48 24.75h28.275v110.13h-28.275z" fill="#00bfc4"/><path d="m473.48 134.89h28.275v189.86h-28.275z" fill="#f8766d"/><g font-size="15px"><text transform="matrix(0,1,1,0,0,0)" y="489.09003" x="29.413191" font-family="Helvetica" fill="#333333"><tspan y="489.09003" x="29.413191">Other</tspan></text>
<text transform="matrix(0,1,1,0,0,0)" y="492.77609" x="86.868271" font-family="&apos;Liberation Sans&apos;" fill="#ffffff"><tspan y="492.77609" x="86.868271">36.7%</tspan></text>
<text transform="matrix(0,1,1,0,0,0)" y="492.77609" x="276.73828" font-family="&apos;Liberation Sans&apos;" fill="#ffffff"><tspan y="492.77609" x="276.73828">63.3%</tspan></text>
</g></g><g transform="translate(10.5 16.5)"><path d="m8.25 24.75h219.86v227.03h-219.86z" fill="#00bfc4"/><path d="m8.25 251.78h219.86v72.971h-219.86z" fill="#f8766d"/></g><g font-size="15px"><text transform="scale(1,-1)" y="-46.954723" x="22.935001" font-family="Helvetica" fill="#333333"><tspan y="-46.954723" x="22.935001">Thermoelectric power</tspan></text>
<text transform="scale(1,-1)" y="-251.87086" x="107.29087" font-family="&apos;Liberation Sans&apos;" fill="#ffffff"><tspan y="-251.87086" x="107.29087">75.7%</tspan></text>
<text transform="scale(1,-1)" y="-324.77637" x="107.29819" font-family="&apos;Liberation Sans&apos;" fill="#ffffff"><tspan y="-324.77637" x="107.29819">24.3%</tspan></text>
</g><g transform="translate(9 16.5)"><path d="m229.61 146.35h159.9v178.39h-159.9z" fill="#f8766d"/><path d="m229.61 24.75h159.9v121.6h-159.9z" fill="#00bfc4"/><g font-size="15px"><text transform="scale(1,-1)" y="-30.454723" x="232.6125" font-family="Helvetica" fill="#333333"><tspan y="-30.454723" x="232.6125">Irrigation</tspan></text>
<text transform="scale(1,-1)" y="-308.27066" x="288.25635" font-family="&apos;Liberation Sans&apos;" fill="#ffffff"><tspan y="-308.27066" x="288.25635">59.5%</tspan></text>
<text transform="scale(1,-1)" y="-129.87633" x="288.38452" font-family="&apos;Liberation Sans&apos;" fill="#ffffff"><tspan y="-129.87633" x="288.38452">40.5%</tspan></text>
</g></g><g stroke="#e6e6e6" stroke-width=".74219px" fill="none"><path d="m238.98 341.25v-306.01"/><path d="m398.88 341.24v-306"/><path d="m456.41 341.25v-306.01"/><path d="m478.35 341.25v-306.01"/></g></g><text style="font-variant-ligatures:normal;letter-spacing:0px;font-variant-numeric:normal;word-spacing:0px;font-variant-caps:normal;font-feature-settings:normal" xml:space="preserve" transform="scale(1,-1)" line-height="18.75px" font-size="13px" y="-11.186453" x="96.598015" font-family="&apos;liberation sans&apos;" fill="#333333"><tspan y="-11.186453" x="96.598015" stroke-width=".75" fill="#333333">Bar width indicates total amount of water used nationwide</tspan></text>
<path marker-end="url(#Arrow1Mend)" d="m89.593 15.375h-52.5" stroke="#4d4d4d" stroke-width=".75" fill="none"/><path marker-end="url(#marker6419)" d="m435.94 15.375h52.5" stroke="#4d4d4d" stroke-width=".75" fill="none"/><g><path d="m18.75 349.34h22.5v15h-22.5z" fill="#00bfc4"/><path d="m148.41 349.5h22.5v15h-22.5z" fill="#f8766d"/><text style="font-variant-ligatures:normal;letter-spacing:0px;font-variant-numeric:normal;word-spacing:0px;font-variant-caps:normal;font-feature-settings:normal" xml:space="preserve" transform="scale(1,-1)" line-height="18.75px" font-size="13px" y="-351.97095" x="44.519531" font-family="&apos;liberation sans&apos;" fill="#333333"><tspan y="-351.97095" x="44.519531" stroke-width=".75" fill="#333333">Metropolitan</tspan></text>
<text style="font-variant-ligatures:normal;letter-spacing:0px;font-variant-numeric:normal;word-spacing:0px;font-variant-caps:normal;font-feature-settings:normal" xml:space="preserve" transform="scale(1,-1)" line-height="18.75px" font-size="13px" y="-352.13086" x="174.18054" font-family="&apos;liberation sans&apos;" fill="#333333"><tspan y="-352.13086" x="174.18054" stroke-width=".75" fill="#333333">Non-metropolitan</tspan></text>
</g></g></svg>
